<!-- icon666.com - MILLIONS vector ICONS FREE --><svg xmlns="http://www.w3.org/2000/svg" id="Layer_3" data-name="Layer 3" viewBox="0 0 64 64"><path d="M19.051,31h7.043a5.946,5.946,0,0,1,2.833-4.133l1.8-7.8A13.012,13.012,0,0,0,19.051,31Z" fill="#000000" style="fill: rgb(26, 82, 169);"></path><path d="M31,17.051v-4A18.892,18.892,0,0,0,19.312,17.9l2.827,2.827A14.912,14.912,0,0,1,31,17.051Z" fill="#000000" style="fill: rgb(26, 82, 169);"></path><path d="M30.243,28.427a4,4,0,1,0,3.514,0,1,1,0,0,1-.532-.672L32,22.447l-1.225,5.308A1,1,0,0,1,30.243,28.427Z" fill="#000000" style="fill: rgb(26, 82, 169);"></path><path d="M20.725,22.139,17.9,19.312A18.892,18.892,0,0,0,13.051,31h4A14.912,14.912,0,0,1,20.725,22.139Z" fill="#000000" style="fill: rgb(26, 82, 169);"></path><path d="M44.688,17.9A18.892,18.892,0,0,0,33,13.051v4a14.912,14.912,0,0,1,8.861,3.674Z" fill="#000000" style="fill: rgb(26, 82, 169);"></path><path d="M35.073,26.867A5.943,5.943,0,0,1,37.906,31h7.043A13.012,13.012,0,0,0,33.272,19.064Z" fill="#000000" style="fill: rgb(26, 82, 169);"></path><path d="M43.275,22.139A14.912,14.912,0,0,1,46.949,31h4A18.892,18.892,0,0,0,46.1,19.312Z" fill="#000000" style="fill: rgb(26, 82, 169);"></path><path d="M32,38a6.006,6.006,0,0,1-5.91-5H13.051a18.974,18.974,0,0,0,37.9,0H37.91A6.006,6.006,0,0,1,32,38Zm-7,6H23V42h2Zm4,0H27V42h2Zm4,0H31V42h2Zm4,0H35V42h2Zm2-2h2v2H39Z" fill="#000000" style="fill: rgb(26, 82, 169);"></path><path d="M57.356,26.258a25.831,25.831,0,0,0-3.368-8.126l2.054-4.517L50.385,7.958l-4.517,2.054a25.831,25.831,0,0,0-8.126-3.368L36,2H28L26.258,6.644a25.831,25.831,0,0,0-8.126,3.368L13.615,7.958,7.958,13.615l2.054,4.517a25.831,25.831,0,0,0-3.368,8.126L2,28v8l4.644,1.742a25.831,25.831,0,0,0,3.368,8.126L7.958,50.385l5.657,5.657,4.517-2.054a25.831,25.831,0,0,0,8.126,3.368L28,62h8l1.742-4.644a25.831,25.831,0,0,0,8.126-3.368l4.517,2.054,5.657-5.657-2.054-4.517a25.831,25.831,0,0,0,3.368-8.126L62,36V28ZM32,53A21,21,0,1,1,53,32,21.024,21.024,0,0,1,32,53Z" fill="#000000" style="fill: rgb(26, 82, 169);"></path></svg>