<!-- icon666.com - MILLIONS vector ICONS FREE --><svg version="1.1" id="Layer_1" xmlns="http://www.w3.org/2000/svg" xmlns:xlink="http://www.w3.org/1999/xlink" x="0px" y="0px" viewBox="0 0 512 512" style="enable-background:new 0 0 512 512;" xml:space="preserve"><g><g><path d="M0,222.476v36.571c0,20.197,16.374,36.571,36.571,36.571c20.197,0,36.571-16.374,36.571-36.571 c0,20.197,16.374,36.571,36.571,36.571s36.571-16.374,36.571-36.571c0,20.197,16.374,36.571,36.571,36.571 c20.197,0,36.571-16.374,36.571-36.571c0,20.197,16.374,36.571,36.571,36.571c20.197,0,36.571-16.374,36.571-36.571 c0,20.197,16.374,36.571,36.571,36.571c20.197,0,36.571-16.374,36.571-36.571c0,20.197,16.374,36.571,36.571,36.571 c20.197,0,36.571-16.374,36.571-36.571c0,20.197,16.374,36.571,36.571,36.571c20.197,0,36.571-16.374,36.571-36.571v-36.571H0z" fill="#000000" style="fill: rgb(179, 0, 0);"></path></g></g><g><g><path d="M103.619,395.358v-63.43c-11.028-0.914-21.372-4.276-30.476-9.554c-1.975,1.143-4.009,2.198-6.095,3.159v69.807 c-3.931,4.456-6.1,10.105-6.095,16.088c0,13.444,10.937,24.381,24.381,24.381c13.444,0,24.381-10.937,24.381-24.381 C109.714,405.27,107.401,399.655,103.619,395.358z" fill="#000000" style="fill: rgb(179, 0, 0);"></path></g></g><g><g><path d="M188.952,395.358v-63.43c-2.01,0.167-4.041,0.262-6.095,0.262c-10.87,0-21.193-2.386-30.476-6.657v69.808 c-3.931,4.456-6.1,10.105-6.095,16.088c0,13.444,10.937,24.381,24.381,24.381s24.381-10.937,24.381-24.381 C195.048,405.27,192.734,399.655,188.952,395.358z" fill="#000000" style="fill: rgb(179, 0, 0);"></path></g></g><g><g><path d="M359.619,395.358v-69.825c-9.283,4.272-19.607,6.657-30.476,6.657c-2.054,0-4.085-0.095-6.095-0.262v63.412 c-3.931,4.456-6.1,10.105-6.095,16.088c0,13.444,10.937,24.381,24.381,24.381c13.444,0,24.381-10.937,24.381-24.381 C365.714,405.27,363.401,399.655,359.619,395.358z" fill="#000000" style="fill: rgb(179, 0, 0);"></path></g></g><g><g><path d="M444.952,395.358v-69.825c-2.086-0.961-4.12-2.014-6.095-3.159c-9.104,5.277-19.449,8.639-30.476,9.554v63.412 c-3.931,4.456-6.1,10.105-6.095,16.088c0,13.444,10.937,24.381,24.381,24.381s24.381-10.937,24.381-24.381 C451.048,405.27,448.734,399.655,444.952,395.358z" fill="#000000" style="fill: rgb(179, 0, 0);"></path></g></g><g><g><path d="M274.286,472.381V329.867c-5.848,1.51-11.973,2.323-18.286,2.323c-6.313,0-12.438-0.813-18.286-2.323v142.514H97.524 v36.571h316.952v-36.571H274.286z" fill="#000000" style="fill: rgb(179, 0, 0);"></path></g></g><g><g><path d="M274.286,109.232V76.19h54.857V3.048h-54.857H256h-18.286v106.184c-29.505,29.54-89.851,60.216-144.572,76.673h325.715 C364.136,169.448,303.79,138.771,274.286,109.232z" fill="#000000" style="fill: rgb(179, 0, 0);"></path></g></g></svg>