<!-- icon666.com - MILLIONS vector ICONS FREE --><svg version="1.1" id="Capa_1" xmlns="http://www.w3.org/2000/svg" xmlns:xlink="http://www.w3.org/1999/xlink" x="0px" y="0px" viewBox="0 0 496 496" style="enable-background:new 0 0 496 496;" xml:space="preserve"><g><g><g><path d="M447.82,390.192c-3.744-22.456-15.976-41.952-33.448-55.296c4.904-5.144,9.632-12.728,9.632-22.896 c0-1.632-0.152-3.176-0.36-4.688c3.048-4.024,8.36-13.088,8.36-27.312c0-21.168-16.52-33.464-29.808-43.344 c-9.76-7.264-18.192-13.536-18.192-20.656h-16c0,15.16,12.528,24.48,24.64,33.496c12.016,8.936,23.36,17.368,23.36,30.504 c0,3.512-0.48,6.456-1.144,8.952c-10.92-12.024-27.872-16.456-28.92-16.712l-3.896,15.512c0.256,0.072,25.96,6.84,25.96,24.248 c0,6.496-4.2,11.248-7.544,14.024c-3.728-1.864-7.592-3.504-11.616-4.848l-68.84-22.944V288h-16v15.032l-11.936,47.744 L259.756,312h-23.504l-32.312,38.776l-11.936-47.744V288h-16v10.232l-68.832,22.944c-4.024,1.344-7.896,2.984-11.616,4.848 c-3.352-2.784-7.552-7.536-7.552-14.024c0-17.408,25.704-24.176,25.96-24.24l-1.96-7.76l-1.936-7.76 c-1.048,0.256-17.992,4.688-28.92,16.712c-0.664-2.496-1.144-5.44-1.144-8.952c0-13.136,11.344-21.568,23.36-30.504 c12.112-9.016,24.64-18.336,24.64-33.496h-16c0,7.12-8.432,13.392-18.192,20.656c-13.288,9.88-29.808,22.176-29.808,43.344 c0,14.224,5.312,23.288,8.36,27.312c-0.208,1.512-0.36,3.056-0.36,4.688c0,10.168,4.728,17.752,9.64,22.896 c-17.48,13.344-29.704,32.84-33.448,55.296L30.556,496h434.888L447.82,390.192z M107.196,480H49.452l14.52-87.176 c4.024-24.136,19.944-44.184,42.056-53.92l13.512,67.568c-4.464,7.488-15.536,28.216-15.536,49.528 C104.004,466.472,105.42,474.232,107.196,480z M371.66,480h-83.6c0.048-5.616,0.136-11.016,0.272-16h71.672v-16h-71.016 c0.312-5.88,0.672-11.2,1.072-16h69.944v-16h-68.296c1.912-15.104,3.856-21.392,3.896-21.504l-7.6-2.496l-7.584-2.528 c-0.336,0.992-7.784,24.304-8.36,90.528h-48.112c-0.576-66.224-8.024-89.536-8.36-90.528l-15.184,5.024 c0.04,0.12,1.984,6.408,3.896,21.504h-68.296v16h69.936c0.4,4.8,0.76,10.12,1.072,16h-71.008v16h71.672 c0.144,4.984,0.224,10.384,0.272,16h-83.6c-1.736-3.472-4.344-10.816-4.344-24c0-21.208,14.512-43.352,14.664-43.568l1.832-2.76 l-15.264-76.32l57.104-19.032l17.728,70.904L243.756,328h8.496l47.688,57.224l17.728-70.904l57.112,19.032l-15.264,76.328 l1.832,2.76c0.152,0.216,14.656,22.232,14.656,43.56C376.004,469.184,373.396,476.528,371.66,480z M388.812,480 c1.776-5.768,3.192-13.528,3.192-24c0-21.312-11.072-42.04-15.528-49.528l13.512-67.568c22.112,9.728,38.024,29.776,42.056,53.92 L446.556,480H388.812z" fill="#000000" style="fill: rgb(179, 0, 0);"></path><path d="M121.132,150.88c-5.616,6.888-9.128,15.56-9.128,25.12c0,20.528,15.6,37.296,35.536,39.552 c4.08,14.04,11.616,26.912,22.24,37.536l31.192,31.192c7.552,7.552,17.6,11.72,28.288,11.72h37.488 c10.688,0,20.736-4.168,28.288-11.72l31.192-31.192c10.624-10.624,18.152-23.496,22.24-37.536 c19.936-2.256,35.536-19.024,35.536-39.552c0-9.56-3.512-18.232-9.128-25.12c9.872-2.976,17.128-12.048,17.128-22.88 c0-13.232-10.768-24-24-24h-1.144c-6.648-49.368-43.984-90.392-93.144-101.144l-0.096,0.44C270.932,1.256,267.628,0,264.004,0 h-32c-3.624,0-6.928,1.256-9.616,3.296l-0.096-0.44C173.132,13.6,135.804,54.64,129.148,104h-1.144c-13.232,0-24,10.768-24,24 C104.004,138.832,111.26,147.904,121.132,150.88z M128.004,176c0-10.416,6.712-19.216,16-22.528v37.384 c0,2.616,0.152,5.208,0.376,7.784C134.9,195.44,128.004,186.552,128.004,176z M336.004,190.856 c0,19.24-7.496,37.312-21.088,50.92l-31.192,31.192c-4.536,4.536-10.56,7.032-16.976,7.032H229.26 c-6.416,0-12.448-2.496-16.976-7.032l-31.192-31.192c-13.592-13.6-21.088-31.68-21.088-50.912V152h176V190.856z M351.628,198.64 c0.224-2.576,0.376-5.16,0.376-7.784v-37.384c9.288,3.312,16,12.112,16,22.528C368.004,186.552,361.108,195.44,351.628,198.64z M216.004,21.168V88h16V16h32v72h16V21.168C317.076,33.192,344.756,65.48,350.772,104H145.236 C151.26,65.472,178.932,33.192,216.004,21.168z M128.004,120h240c4.416,0,8,3.584,8,8s-3.584,8-8,8h-240c-4.416,0-8-3.584-8-8 S123.588,120,128.004,120z" fill="#000000" style="fill: rgb(179, 0, 0);"></path><rect x="296.004" y="72" width="16" height="16" fill="#000000" style="fill: rgb(179, 0, 0);"></rect><rect x="184.004" y="72" width="16" height="16" fill="#000000" style="fill: rgb(179, 0, 0);"></rect></g></g></g></svg>