<!-- icon666.com - MILLIONS vector ICONS FREE --><svg version="1.1" id="Layer_1" xmlns="http://www.w3.org/2000/svg" xmlns:xlink="http://www.w3.org/1999/xlink" x="0px" y="0px" viewBox="0 0 511.999 511.999" style="enable-background:new 0 0 511.999 511.999;" xml:space="preserve"><g><g><path d="M342.422,51.672c0-21.825-17.757-39.582-39.582-39.582h-93.68c-21.825,0-39.582,17.757-39.582,39.582v34.08H0v369.062 h134.298v45.095h106.493h30.417h106.493v-45.095h134.298V85.752H342.422V51.672z M199.995,51.672c0-5.053,4.111-9.165,9.165-9.165 h93.68c5.053,0,9.165,4.111,9.165,9.165v34.08H199.995V51.672z M240.791,469.492h-76.076v-14.677h76.076V469.492z M240.791,424.12 h-76.076v-14.956h76.076V424.12z M240.791,378.746h-76.076V363.79h76.076V378.746z M347.285,469.492h-76.076v-14.677h76.076 V469.492z M347.285,424.12h-76.076v-14.956h76.076V424.12z M347.285,378.746h-76.076V363.79h76.076V378.746z M347.285,333.373 h-76.076v-14.956h76.076V333.373z M481.582,424.397h-103.88v-0.278v-14.956v-30.417V363.79v-30.417v-45.373H240.791v45.373 H134.298v45.373v30.417v14.956v0.278H30.417V234.797h154.83v26.835h141.505v-26.835h154.83V424.397z M215.665,231.215v-23.254 h80.671v23.254H215.665z M481.583,116.169v88.21h-154.83v-26.835H185.247v26.835H30.417v-88.21H481.583z" fill="#000000" style="fill: rgb(179, 0, 0);"></path></g></g></svg>