<!-- icon666.com - MILLIONS vector ICONS FREE --><svg id="Capa_1" enable-background="new 0 0 512 512" viewBox="0 0 512 512" xmlns="http://www.w3.org/2000/svg"><g><path d="m271.059 128v256h81.759c4.093-4.175 8.668-7.876 13.636-11.011-7.84-9.2-12.571-21.13-12.571-34.165 0-29.108 23.597-52.706 52.706-52.706s52.706 23.597 52.706 52.706c0 13.035-4.732 24.965-12.571 34.165 21.127 13.335 35.16 36.887 35.16 63.717v15.059c0 8.317-6.742 15.059-15.059 15.059h-120.472c-8.317 0-15.059-6.742-15.059-15.059v-15.059c0-7.87 1.207-15.458 3.447-22.588h-63.682v82.824c0 8.317-6.742 15.059-15.059 15.059s-15.059-6.742-15.059-15.059v-218.354h-63.682c2.24 7.131 3.447 14.718 3.447 22.588v15.059c0 8.317-6.742 15.059-15.059 15.059h-120.471c-8.317 0-15.059-6.742-15.059-15.059v-15.059c0-26.83 14.033-50.382 35.16-63.717-7.84-9.2-12.571-21.13-12.571-34.165 0-29.108 23.597-52.706 52.706-52.706s52.706 23.597 52.706 52.706c0 13.035-4.732 24.965-12.571 34.165 4.968 3.136 9.543 6.836 13.636 11.011h81.759v-233.411c-.001-8.317 6.741-15.059 15.058-15.059s15.059 6.742 15.059 15.059v82.824h81.759c4.093-4.175 8.668-7.876 13.636-11.011-7.84-9.2-12.571-21.13-12.571-34.165-.001-29.11 23.597-52.707 52.705-52.707 29.109 0 52.706 23.597 52.706 52.706 0 13.035-4.732 24.965-12.571 34.165 21.127 13.335 35.16 36.887 35.16 63.717v15.059c0 8.317-6.742 15.059-15.059 15.059h-120.471c-8.317 0-15.059-6.742-15.059-15.059v-15.059c0-7.87 1.207-15.458 3.447-22.588zm180.706 22.588c0-24.95-20.226-45.176-45.176-45.176s-45.176 20.226-45.176 45.176zm-301.177 150.588c0-24.95-20.226-45.176-45.176-45.176s-45.176 20.226-45.176 45.176zm301.177 135.53c0-24.95-20.226-45.176-45.176-45.176s-45.176 20.226-45.176 45.176zm-346.353-210.824c12.475 0 22.588-10.113 22.588-22.588s-10.113-22.588-22.588-22.588-22.588 10.113-22.588 22.588 10.113 22.588 22.588 22.588zm301.176-150.588c12.475 0 22.588-10.113 22.588-22.588s-10.113-22.588-22.588-22.588-22.588 10.113-22.588 22.588 10.113 22.588 22.588 22.588zm0 286.118c12.475 0 22.588-10.113 22.588-22.588s-10.113-22.588-22.588-22.588-22.588 10.113-22.588 22.588 10.113 22.588 22.588 22.588z" fill="#000000" style="fill: rgb(179, 0, 0);"></path></g></svg>