<!-- icon666.com - MILLIONS vector ICONS FREE --><svg version="1.1" id="Layer_1" xmlns="http://www.w3.org/2000/svg" xmlns:xlink="http://www.w3.org/1999/xlink" x="0px" y="0px" viewBox="0 0 511.998 511.998" style="enable-background:new 0 0 511.998 511.998;" xml:space="preserve"><g><g><g><circle cx="188.497" cy="100.271" r="8.215" fill="#000000" style="fill: rgb(26, 82, 169);"></circle><path d="M330.009,123.151c15.746,0,28.556-12.81,28.556-28.556c0-15.746-12.81-28.556-28.556-28.556 c-15.746,0-28.556,12.81-28.556,28.556C301.453,110.341,314.262,123.151,330.009,123.151z M330.009,82.203 c6.833,0,12.392,5.559,12.392,12.392s-5.559,12.392-12.392,12.392s-12.392-5.559-12.392-12.392S323.176,82.203,330.009,82.203z" fill="#000000" style="fill: rgb(26, 82, 169);"></path><circle cx="256.236" cy="72.57" r="8.216" fill="#000000" style="fill: rgb(26, 82, 169);"></circle><circle cx="351.425" cy="168.62" r="8.215" fill="#000000" style="fill: rgb(26, 82, 169);"></circle><circle cx="160.186" cy="167.758" r="8.214" fill="#000000" style="fill: rgb(26, 82, 169);"></circle><circle cx="323.112" cy="236.107" r="8.214" fill="#000000" style="fill: rgb(26, 82, 169);"></circle><circle cx="255.374" cy="263.807" r="8.214" fill="#000000" style="fill: rgb(26, 82, 169);"></circle><path d="M205.032,470.379h101.943c10.494,0,19.031-8.538,19.031-19.031v-34.444c0-10.494-8.538-19.031-19.031-19.031H205.032 c-10.494,0-19.031,8.538-19.031,19.031v34.444C186.001,461.841,194.539,470.379,205.032,470.379z M202.165,416.904 c0-1.554,1.314-2.867,2.867-2.867h101.943c1.554,0,2.867,1.314,2.867,2.867v34.444c0,1.554-1.314,2.867-2.867,2.867H205.032 c-1.554,0-2.867-1.314-2.867-2.867V416.904z" fill="#000000" style="fill: rgb(26, 82, 169);"></path><path d="M445.1,317.385H302.068c0.481-1.796,0.762-3.675,0.762-5.621v-19.476c2.983-1.112,5.926-2.331,8.81-3.647l13.771,13.771 c4.105,4.105,9.574,6.364,15.403,6.364c5.83,0,11.3-2.26,15.404-6.364l35.417-35.419c4.106-4.105,6.365-9.574,6.365-15.405 c0-5.829-2.261-11.3-6.364-15.404l-13.768-13.768c1.318-2.886,2.536-5.829,3.647-8.81h19.475 c12.012,0,21.786-9.773,21.786-21.785v-50.089c0-12.012-9.773-21.785-21.786-21.785h-19.474c-1.112-2.983-2.33-5.925-3.647-8.81 l13.767-13.769c4.106-4.105,6.365-9.576,6.364-15.405c0-5.83-2.261-11.3-6.363-15.403l-35.418-35.419 c-4.103-4.106-9.574-6.366-15.404-6.366s-11.301,2.261-15.403,6.364L311.64,44.905c-2.885-1.317-5.827-2.535-8.81-3.647V21.785 C302.83,9.773,293.057,0,281.044,0h-50.089c-12.013,0-21.786,9.773-21.786,21.785v19.474c-2.984,1.113-5.927,2.331-8.81,3.647 l-13.768-13.767c-4.105-4.105-9.576-6.364-15.405-6.364s-11.301,2.261-15.404,6.364l-35.417,35.418 c-4.106,4.105-6.365,9.575-6.365,15.405s2.261,11.301,6.364,15.404l13.767,13.768c-1.317,2.886-2.534,5.829-3.647,8.81h-19.475 c-12.011,0-21.784,9.773-21.784,21.785v50.089c0,12.013,9.772,21.785,21.783,21.785h19.475c1.112,2.983,2.331,5.926,3.648,8.81 l-13.767,13.768c-4.106,4.103-6.365,9.574-6.365,15.404c0,5.83,2.261,11.301,6.364,15.403l35.418,35.42 c4.103,4.103,9.574,6.363,15.404,6.363s11.301-2.26,15.405-6.363l13.769-13.769c2.885,1.316,5.827,2.533,8.809,3.646v19.476 c0,1.946,0.281,3.824,0.762,5.621H66.899c-16.191,0-29.364,13.174-29.364,29.365c0,13.389,9.01,24.706,21.284,28.226v117.992 c0,10.495,8.538,19.032,19.031,19.032h356.303c10.494,0,19.03-8.538,19.03-19.032v-117.99c12.272-3.52,21.28-14.837,21.28-28.225 C474.464,330.557,461.292,317.385,445.1,317.385z M202.39,271.672c-3.123-1.595-6.917-1.001-9.399,1.48l-17.83,17.83 c-1.052,1.051-2.462,1.629-3.975,1.629c-1.512,0-2.924-0.579-3.974-1.629l-35.42-35.421c-1.051-1.051-1.629-2.462-1.629-3.973 c0-1.511,0.579-2.922,1.631-3.974l17.829-17.831c2.48-2.48,3.077-6.276,1.478-9.398c-2.834-5.536-5.25-11.373-7.182-17.349 c-1.079-3.336-4.185-5.596-7.691-5.596h-25.219c-3.099,0-5.62-2.522-5.62-5.621V141.73c0-3.099,2.52-5.621,5.62-5.621h25.219 c3.506,0,6.613-2.261,7.691-5.597c1.93-5.972,4.346-11.809,7.182-17.347c1.598-3.122,1.001-6.918-1.478-9.399l-17.83-17.831 c-1.052-1.052-1.63-2.463-1.63-3.974c0-1.512,0.579-2.922,1.631-3.974l35.418-35.419c1.051-1.051,2.461-1.629,3.974-1.629 c1.512,0,2.925,0.579,3.975,1.63l17.831,17.829c2.481,2.481,6.279,3.075,9.399,1.478c5.528-2.832,11.364-5.249,17.348-7.182 c3.335-1.079,5.595-4.184,5.595-7.69v-25.22c0-3.047,2.574-5.621,5.622-5.621h50.089c3.1,0,5.622,2.522,5.622,5.621v25.218 c0,3.505,2.261,6.612,5.596,7.69c5.978,1.933,11.815,4.35,17.347,7.182c3.122,1.599,6.919,1.002,9.399-1.478l17.834-17.83 c1.051-1.051,2.461-1.629,3.974-1.629c1.511,0,2.922,0.579,3.972,1.63l35.419,35.418c1.052,1.052,1.63,2.462,1.63,3.974 s-0.579,2.924-1.63,3.974l-17.83,17.831c-2.48,2.481-3.077,6.277-1.478,9.399c2.836,5.539,5.252,11.375,7.182,17.347 c1.078,3.336,4.184,5.597,7.691,5.597h25.218c3.047,0,5.622,2.574,5.622,5.621v50.089c0,3.047-2.574,5.621-5.622,5.621h-25.22 c-3.506,0-6.613,2.262-7.691,5.598c-1.929,5.972-4.345,11.808-7.18,17.347c-1.598,3.122-1.001,6.917,1.478,9.398l17.829,17.831 c1.053,1.052,1.632,2.463,1.632,3.974c0,1.512-0.579,2.923-1.632,3.974l-35.418,35.419c-2.192,2.192-5.755,2.191-7.947,0 l-17.833-17.831c-2.479-2.479-6.276-3.076-9.399-1.478c-5.535,2.834-11.371,5.251-17.347,7.183 c-3.336,1.078-5.596,4.184-5.596,7.69v25.219c0,3.099-2.522,5.621-5.622,5.621h-50.089c-3.1,0-5.622-2.522-5.622-5.621v-25.219 c0-3.505-2.26-6.611-5.595-7.69C213.762,276.922,207.925,274.507,202.39,271.672z M437.021,492.968h-0.001 c0,1.555-1.312,2.869-2.866,2.869H77.851c-1.554,0-2.867-1.314-2.867-2.869V376.116h362.038V492.968z M445.1,359.952H66.899 c-7.279,0-13.201-5.922-13.201-13.202s5.921-13.202,13.201-13.202H445.1c7.279,0,13.201,5.922,13.201,13.202 S452.379,359.952,445.1,359.952z" fill="#000000" style="fill: rgb(26, 82, 169);"></path><path d="M231.548,442.208h48.909c4.464,0,8.082-3.619,8.082-8.082s-3.617-8.082-8.082-8.082h-48.909 c-4.464,0-8.082,3.619-8.082,8.082S227.085,442.208,231.548,442.208z" fill="#000000" style="fill: rgb(26, 82, 169);"></path><path d="M293.353,166.975c0-20.707-16.846-37.554-37.552-37.554c-20.706,0-37.552,16.846-37.552,37.554 c0,20.706,16.846,37.552,37.552,37.552S293.353,187.681,293.353,166.975z M255.801,188.363c-11.793,0-21.388-9.595-21.388-21.388 c0-11.794,9.594-21.39,21.388-21.39c11.793,0,21.388,9.595,21.388,21.39C277.189,178.768,267.595,188.363,255.801,188.363z" fill="#000000" style="fill: rgb(26, 82, 169);"></path><circle cx="187.887" cy="235.497" r="8.215" fill="#000000" style="fill: rgb(26, 82, 169);"></circle><path d="M401.63,488.929c11.658,0,21.144-9.485,21.144-21.144v-22.75c0-9.366-6.127-17.318-14.579-20.088 c8.452-2.769,14.579-10.722,14.579-20.087c0-11.66-9.486-21.145-21.144-21.145s-21.143,9.485-21.143,21.145 c0,9.365,6.127,17.318,14.578,20.087c-8.452,2.769-14.578,10.722-14.578,20.088v22.749 C380.487,479.443,389.971,488.929,401.63,488.929z M401.63,399.878c2.747,0,4.981,2.234,4.981,4.981 c0,2.746-2.234,4.981-4.981,4.981c-2.746,0-4.98-2.234-4.98-4.981C396.65,402.113,398.885,399.878,401.63,399.878z M396.65,445.034c0-2.747,2.234-4.981,4.98-4.981c2.747,0,4.981,2.234,4.981,4.981v22.749c0,2.747-2.234,4.981-4.981,4.981 c-2.746,0-4.98-2.234-4.98-4.981V445.034z" fill="#000000" style="fill: rgb(26, 82, 169);"></path><path d="M324.616,166.774c0-37.834-30.78-68.616-68.616-68.616c-37.835,0-68.616,30.78-68.616,68.616 c0,37.834,30.78,68.615,68.616,68.615C293.835,235.389,324.616,204.608,324.616,166.774z M203.548,166.774 c0-28.921,23.529-52.452,52.452-52.452s52.452,23.53,52.452,52.452S284.923,219.225,256,219.225S203.548,195.695,203.548,166.774 z" fill="#000000" style="fill: rgb(26, 82, 169);"></path></g></g></g></svg>