<!-- icon666.com - MILLIONS vector ICONS FREE --><svg viewBox="0 -78 512 512" xmlns="http://www.w3.org/2000/svg"><path d="m359.5 222h-104c-6.894531 0-12.5 5.605469-12.5 12.5v54c0 6.894531 5.605469 12.5 12.5 12.5h104c6.894531 0 12.5-5.605469 12.5-12.5v-54c0-6.894531-5.605469-12.5-12.5-12.5zm-2.5 64h-99v-49h99zm0 0" fill="#000000" style="fill: rgb(26, 82, 169);"></path><path d="m82.5 247h-40c-6.894531 0-12.5 5.605469-12.5 12.5v29c0 6.894531 5.605469 12.5 12.5 12.5h40c6.894531 0 12.5-5.605469 12.5-12.5v-29c0-6.894531-5.605469-12.5-12.5-12.5zm-2.5 39h-35v-24h35zm0 0" fill="#000000" style="fill: rgb(26, 82, 169);"></path><path d="m344.5 126h-177c-15.164062 0-27.5 12.335938-27.5 27.5v26c0 6.894531 5.605469 12.5 12.5 12.5h207c6.894531 0 12.5-5.605469 12.5-12.5v-26c0-15.164062-12.335938-27.5-27.5-27.5zm12.5 51h-202v-23.5c0-6.894531 5.605469-12.5 12.5-12.5h177c6.894531 0 12.5 5.605469 12.5 12.5zm0 0" fill="#000000" style="fill: rgb(26, 82, 169);"></path><path d="m497.167969 192.226562v-13.085937c0-4.675781-1.820313-9.070313-5.128907-12.371094l-25.640624-25.644531c-3.304688-3.304688-7.699219-5.125-12.375-5.125h-52.023438v-28.5c0-15.164062-12.335938-27.5-27.5-27.5h-1v-7.5c0-9.050781-6.90625-16.519531-15.722656-17.410156l-7.40625-40.722656c-1.515625-8.324219-8.753906-14.367188-17.21875-14.367188h-29.308594c-8.460938 0-15.703125 6.042969-17.214844 14.367188l-7.40625 40.722656c-8.820312.894531-15.722656 8.359375-15.722656 17.410156v7.5h-15v-7.5c0-9.050781-6.90625-16.515625-15.726562-17.410156l-7.402344-40.722656c-1.511719-8.324219-8.753906-14.367188-17.21875-14.367188h-29.308594c-8.460938 0-15.703125 6.042969-17.214844 14.367188l-7.40625 40.722656c-8.820312.894531-15.722656 8.359375-15.722656 17.410156v7.5h-1c-15.164062 0-27.5 12.335938-27.5 27.5v28.5h-53.023438c-4.675781 0-9.070312 1.820312-12.375 5.125l-25.640624 25.644531c-3.308594 3.304688-5.128907 7.699219-5.128907 12.375v13.25c-7.890625 1.691407-13.832031 8.714844-13.832031 17.105469v129c0 9.648438 7.851562 17.5 17.5 17.5h342c4.144531 0 7.5-3.355469 7.5-7.5s-3.355469-7.5-7.5-7.5h-131.5v-106.5c0-6.894531-5.605469-12.5-12.5-12.5h-63c-6.894531 0-12.5 5.605469-12.5 12.5v79c0 4.144531 3.359375 7.5 7.5 7.5s7.5-3.355469 7.5-7.5v-76.5h58v104h-88v-233.5c0-6.894531 5.605469-12.5 12.5-12.5h237c6.894531 0 12.5 5.605469 12.5 12.5v241c0 4.144531 3.355469 7.5 7.5 7.5h100c9.648438 0 17.5-7.851562 17.5-17.5v-129c0-8.738281-6.449219-15.984375-14.832031-17.273438zm-467.601563-14.851562 25.640625-25.644531c.472657-.46875 1.101563-.730469 1.769531-.730469h53.023438v41h-81.167969v-12.855469c0-.667969.261719-1.296875.734375-1.769531zm-14.566406 161.125v-129c0-1.378906 1.121094-2.5 2.5-2.5h92.5v134h-92.5c-1.378906 0-2.5-1.121094-2.5-2.5zm286.386719-321.449219c.214843-1.1875 1.25-2.050781 2.460937-2.050781h29.308594c1.207031 0 2.242188.863281 2.457031 2.054688l6.902344 37.945312h-48.027344zm-22.886719 55.449219c0-1.378906 1.121094-2.5 2.5-2.5h75c1.378906 0 2.5 1.121094 2.5 2.5v7.5h-80zm-102.113281-55.445312c.214843-1.191407 1.25-2.054688 2.460937-2.054688h29.308594c1.207031 0 2.242188.863281 2.457031 2.054688l6.902344 37.945312h-48.027344zm-22.886719 55.445312c0-1.378906 1.121094-2.5 2.5-2.5h75c1.378906 0 2.5 1.121094 2.5 2.5v7.5h-80zm300.523438 78.5c.660156 0 1.304687.265625 1.769531.730469l25.644531 25.644531c.46875.472656.730469 1.101562.730469 1.769531v12.855469h-80.167969v-41zm42.976562 187.5c0 1.378906-1.121094 2.5-2.5 2.5h-92.5v-134h92.5c1.378906 0 2.5 1.121094 2.5 2.5zm0 0" fill="#000000" style="fill: rgb(26, 82, 169);"></path><path d="m469.5 247h-40c-6.894531 0-12.5 5.605469-12.5 12.5v29c0 6.894531 5.605469 12.5 12.5 12.5h40c6.894531 0 12.5-5.605469 12.5-12.5v-29c0-6.894531-5.605469-12.5-12.5-12.5zm-2.5 39h-35v-24h35zm0 0" fill="#000000" style="fill: rgb(26, 82, 169);"></path><path d="m185 289.5v-11c0-4.144531-3.359375-7.5-7.5-7.5s-7.5 3.355469-7.5 7.5v11c0 4.144531 3.359375 7.5 7.5 7.5s7.5-3.355469 7.5-7.5zm0 0" fill="#000000" style="fill: rgb(26, 82, 169);"></path></svg>