<!-- icon666.com - MILLIONS vector ICONS FREE --><svg id="svg2" viewBox="0 0 512 512" xmlns="http://www.w3.org/2000/svg" xmlns:svg="http://www.w3.org/2000/svg" isolation="isolate"><clipPath id="_clipPath_B68ojz8xBTW47bNq04SAAxuibUIvTJQl"><circle id="circle9" cx="380.115" cy="157.808" r="72.423" fill="#000000" style="fill: rgb(179, 0, 0);"></circle></clipPath><clipPath id="_clipPath_wJJ72DMQkZFt1AOKzxQ36OgspwLOoamP"><path id="path18" d="m445.538 408.462-4.307 12.923-12.923 8.615h-370.462l-12.923-4.308-12.923-12.923v-34.461l106.545-169.002c10.143-16.09 27.233-16.502 38.14-.92l100.853 144.076 64.66-57.476c7.108-6.318 18.21-5.863 24.776 1.016l78.564 82.306z" fill="#000000" style="fill: rgb(179, 0, 0);"></path></clipPath><path id="path26" d="m393.84531 78.384375c-29.13473 0-55.18372 13.449513-72.27813 34.460935h-263.721867c-18.05362 0-32.845313 14.79326-32.845313 32.84687v258.46251c0 18.05361 14.791693 32.84531 32.845313 32.84531h361.846867c18.05363 0 32.84532-14.7917 32.84532-32.84531v-160.33594c21.0124-17.09438 34.4625-43.14416 34.4625-72.27969 0-51.36452-41.79014-93.154685-93.15469-93.154685zm0 14.000001c43.79839 0 79.15469 35.356324 79.15469 79.154684 0 19.37248-6.91994 37.08988-18.425 50.82969l-111.55782-111.55937c13.74004-11.50434 31.45633-18.425004 50.82813-18.425004zm-60.72969 28.325004 111.55938 111.55937c-13.74 11.50378-31.45801 18.42343-50.82969 18.42343-43.79837 0-79.15313-35.35474-79.15313-79.15312 0-19.37192 6.91897-37.08961 18.42344-50.82968zm-275.270307 6.13593h254.290627c-7.29089 13.27615-11.44376 28.50823-11.44376 44.69375 0 51.36454 41.7886 93.15312 93.15313 93.15312 16.18477 0 31.41647-4.15193 44.69219-11.44218v107.58594l-66.5-69.66719c-9.18065-9.61829-24.55276-10.24741-34.49063-1.41406l-58.78281 52.25156-96.34375-137.63594c-6.45507-9.22185-15.68027-14.63101-25.25937-14.4-9.57912.23103-18.5346 6.07903-24.5375 15.60156l-93.62344 148.50626v-208.38595c0-10.47637 8.368933-18.84687 18.845313-18.84687zm99.653127 77.12187c4.22838-.10197 9.00119 2.07269 13.45312 8.43282l100.85157 144.07656a7.0007 7.0007 0 0 0 10.38593 1.21719l64.65938-57.475c4.27814-3.80266 11.11114-3.52253 15.0625.61719l76.62656 80.275v23.04375c0 10.47637-8.36893 18.84531-18.84532 18.84531h-361.846867c-10.47638 0-18.845313-8.36894-18.845313-18.84531v-23.82344l105.46718-167.29219c4.14008-6.56748 8.80286-8.9699 13.03126-9.07188z" text-indent="0" text-align="start" text-decoration-line="none" text-decoration-style="solid" text-decoration-color="#000000" text-transform="none" block-progression="tb" white-space="normal" isolation="auto" mix-blend-mode="normal" solid-color="#000000" solid-opacity="1" fill="#000000" style="fill: rgb(179, 0, 0);"></path></svg>