<!-- icon666.com - MILLIONS vector ICONS FREE --><svg viewBox="0 0 512.00427 512" xmlns="http://www.w3.org/2000/svg"><path d="m315.734375 512.003906c-2.183594 0-4.367187-.835937-6.03125-2.5-3.335937-3.335937-3.335937-8.730468 0-12.066406l45.15625-45.167969-45.164063-45.164062c-3.339843-3.339844-3.339843-8.730469 0-12.066407 3.328126-3.335937 8.738282-3.335937 12.066407 0l51.199219 51.199219c3.335937 3.335938 3.335937 8.730469 0 12.066407l-51.199219 51.199218c-1.65625 1.664063-3.839844 2.5-6.027344 2.5zm0 0" fill="#000000" style="fill: rgb(26, 82, 169);"></path><path d="m366.933594 460.804688h-256c-4.707032 0-8.53125-3.816407-8.53125-8.535157s3.824218-8.53125 8.53125-8.53125h256c4.710937 0 8.535156 3.8125 8.535156 8.53125s-3.824219 8.535157-8.535156 8.535157zm0 0" fill="#000000" style="fill: rgb(26, 82, 169);"></path><path d="m59.734375 512.003906c-32.9375 0-59.73046875-26.804687-59.73046875-59.734375 0-32.929687 26.79296875-59.730469 59.73046875-59.730469 32.941406 0 59.734375 26.800782 59.734375 59.730469 0 32.929688-26.792969 59.734375-59.734375 59.734375zm0-102.398437c-23.523437 0-42.664063 19.140625-42.664063 42.664062 0 23.527344 19.140626 42.667969 42.664063 42.667969 23.527344 0 42.667969-19.140625 42.667969-42.667969 0-23.523437-19.140625-42.664062-42.667969-42.664062zm0 0" fill="#000000" style="fill: rgb(26, 82, 169);"></path><path d="m401.070312 204.804688c-2.1875 0-4.371093-.835938-6.035156-2.5-3.335937-3.335938-3.335937-8.730469 0-12.066407l51.199219-51.199219c3.203125-3.203124 8.867187-3.203124 12.066406 0l51.199219 51.199219c3.339844 3.335938 3.339844 8.730469 0 12.066407-3.324219 3.335937-8.726562 3.335937-12.0625 0l-45.167969-45.167969-45.167969 45.167969c-1.664062 1.664062-3.847656 2.5-6.03125 2.5zm0 0" fill="#000000" style="fill: rgb(26, 82, 169);"></path><path d="m452.269531 409.605469c-4.710937 0-8.535156-3.816407-8.535156-8.535157v-256c0-4.71875 3.824219-8.53125 8.535156-8.53125 4.710938 0 8.53125 3.8125 8.53125 8.53125v256c0 4.71875-3.820312 8.535157-8.53125 8.535157zm0 0" fill="#000000" style="fill: rgb(26, 82, 169);"></path><path d="m452.269531 512.003906c-32.9375 0-59.734375-26.804687-59.734375-59.734375 0-32.929687 26.796875-59.730469 59.734375-59.730469s59.734375 26.800782 59.734375 59.730469c0 32.929688-26.796875 59.734375-59.734375 59.734375zm0-102.398437c-23.527343 0-42.667969 19.140625-42.667969 42.664062 0 23.527344 19.140626 42.667969 42.667969 42.667969 23.527344 0 42.664063-19.140625 42.664063-42.667969 0-23.523437-19.136719-42.664062-42.664063-42.664062zm0 0" fill="#000000" style="fill: rgb(26, 82, 169);"></path><path d="m196.269531 119.472656c-2.183593 0-4.371093-.839844-6.035156-2.503906l-51.199219-51.199219c-3.335937-3.335937-3.335937-8.726562 0-12.066406l51.199219-51.199219c3.328125-3.335937 8.730469-3.335937 12.066406 0 3.335938 3.335938 3.335938 8.730469 0 12.066406l-45.15625 45.167969 45.164063 45.167969c3.339844 3.335938 3.339844 8.726562 0 12.0625-1.671875 1.664062-3.855469 2.503906-6.039063 2.503906zm0 0" fill="#000000" style="fill: rgb(26, 82, 169);"></path><path d="m401.070312 68.269531h-256c-4.710937 0-8.535156-3.8125-8.535156-8.53125s3.824219-8.535156 8.535156-8.535156h256c4.707032 0 8.53125 3.816406 8.53125 8.535156s-3.824218 8.53125-8.53125 8.53125zm0 0" fill="#000000" style="fill: rgb(26, 82, 169);"></path><path d="m452.269531 119.472656c-32.9375 0-59.734375-26.804687-59.734375-59.734375 0-32.929687 26.796875-59.73437475 59.734375-59.73437475s59.734375 26.80468775 59.734375 59.73437475c0 32.929688-26.796875 59.734375-59.734375 59.734375zm0-102.402344c-23.527343 0-42.667969 19.140626-42.667969 42.667969 0 23.527344 19.140626 42.664063 42.667969 42.664063 23.527344 0 42.664063-19.136719 42.664063-42.664063 0-23.527343-19.136719-42.667969-42.664063-42.667969zm0 0" fill="#000000" style="fill: rgb(26, 82, 169);"></path><path d="m59.734375 375.472656c-2.261719 0-4.4375-.898437-6.03125-2.503906l-51.199219-51.199219c-3.339844-3.335937-3.339844-8.726562 0-12.066406 3.328125-3.335937 8.726563-3.335937 12.066406 0l45.164063 45.167969 45.167969-45.167969c3.328125-3.335937 8.738281-3.335937 12.066406 0 3.335938 3.339844 3.335938 8.730469 0 12.066406l-51.199219 51.199219c-1.605469 1.605469-3.773437 2.503906-6.035156 2.503906zm0 0" fill="#000000" style="fill: rgb(26, 82, 169);"></path><path d="m59.734375 375.472656c-4.710937 0-8.53125-3.816406-8.53125-8.535156v-256c0-4.71875 3.820313-8.535156 8.53125-8.535156s8.535156 3.816406 8.535156 8.535156v256c0 4.71875-3.824219 8.535156-8.535156 8.535156zm0 0" fill="#000000" style="fill: rgb(26, 82, 169);"></path><path d="m59.734375 119.472656c-32.9375 0-59.73046875-26.804687-59.73046875-59.734375 0-32.929687 26.79296875-59.73437475 59.73046875-59.73437475 32.941406 0 59.734375 26.80468775 59.734375 59.73437475 0 32.929688-26.792969 59.734375-59.734375 59.734375zm0-102.402344c-23.523437 0-42.664063 19.140626-42.664063 42.667969 0 23.527344 19.140626 42.664063 42.664063 42.664063 23.527344 0 42.667969-19.136719 42.667969-42.664063 0-23.527343-19.140625-42.667969-42.667969-42.667969zm0 0" fill="#000000" style="fill: rgb(26, 82, 169);"></path><path d="m273.070312 401.070312h-34.136718c-4.707032 0-8.53125-3.8125-8.53125-8.53125v-16.480468c0-3.738282-2.328125-7.03125-5.667969-8.011719-10.578125-3.105469-18.609375-6.195313-24.539063-9.421875-3.089843-1.6875-7.09375-1.015625-9.730468 1.613281l-11.664063 11.65625c-3.335937 3.335938-8.730469 3.335938-12.066406 0l-26.632813-26.632812c-1.601562-1.601563-2.5-3.761719-2.5-6.03125s.898438-4.4375 2.5-6.035157l11.664063-11.65625c2.636719-2.636718 3.296875-6.628906 1.613281-9.726562-3.234375-5.929688-6.3125-13.960938-9.429687-24.542969-.980469-3.335937-4.273438-5.664062-8.003907-5.664062h-16.476562c-4.710938 0-8.535156-3.816407-8.535156-8.535157v-34.132812c0-4.71875 3.824218-8.535156 8.535156-8.535156h16.476562c3.730469 0 7.023438-2.328125 8.003907-5.664063 3.117187-10.582031 6.195312-18.613281 9.429687-24.542969 1.683594-3.089843 1.015625-7.089843-1.621094-9.726562l-11.65625-11.65625c-1.601562-1.605469-2.5-3.765625-2.5-6.035156 0-2.269532.898438-4.4375 2.5-6.03125l26.632813-26.632813c3.328125-3.335937 8.730469-3.335937 12.066406 0l11.65625 11.65625c2.636719 2.644531 6.640625 3.320313 9.71875 1.613281 5.941407-3.234374 13.96875-6.316406 24.550781-9.421874 3.347657-.980469 5.675782-4.273438 5.675782-8.011719v-16.476563c0-4.71875 3.824218-8.535156 8.53125-8.535156h34.136718c4.707032 0 8.53125 3.816406 8.53125 8.535156v16.476563c0 3.738281 2.332032 7.03125 5.667969 8.011719 10.578125 3.105468 18.609375 6.195312 24.539063 9.421874 3.109375 1.6875 7.09375 1.023438 9.730468-1.613281l11.664063-11.65625c3.335937-3.335937 8.730469-3.335937 12.066406 0l26.632813 26.632813c1.605468 1.605468 2.5 3.761718 2.5 6.03125 0 2.269531-.894532 4.4375-2.5 6.035156l-11.664063 11.65625c-2.636719 2.636719-3.296875 6.628906-1.613281 9.726562 3.234375 5.929688 6.3125 13.960938 9.429688 24.542969.980468 3.335938 4.273437 5.664063 8.003906 5.664063h16.476562c4.710938 0 8.535156 3.816406 8.535156 8.535156v34.132812c0 4.71875-3.824218 8.535157-8.535156 8.535157h-16.476562c-3.730469 0-7.023438 2.328125-8.003906 5.664062-3.117188 10.582031-6.195313 18.613281-9.429688 24.542969-1.683594 3.089844-1.015625 7.089844 1.613281 9.726562l11.65625 11.65625c1.601563 1.605469 2.5 3.765626 2.5 6.035157s-.898437 4.4375-2.5 6.03125l-26.632812 26.632812c-3.328125 3.335938-8.730469 3.335938-12.066407 0l-11.65625-11.65625c-2.636718-2.628906-6.632812-3.320312-9.71875-1.613281-5.949218 3.234375-13.972656 6.316406-24.550781 9.421875-3.335937.980469-5.667969 4.273437-5.667969 8.011719v16.480468c0 4.71875-3.824218 8.53125-8.53125 8.53125zm-25.601562-17.066406h17.066406v-7.945312c0-11.253906 7.363282-21.28125 17.921875-24.378906 9.402344-2.765626 16.339844-5.402344 21.195313-8.039063 9.683594-5.289063 22-3.421875 29.953125 4.53125l5.621093 5.625 14.566407-14.566406-5.621094-5.625c-7.945313-7.953125-9.816406-20.273438-4.53125-29.960938 2.644531-4.855469 5.273437-11.792969 8.046875-21.1875 3.105469-10.546875 13.132812-17.917969 24.378906-17.917969h7.9375v-17.066406h-7.945312c-11.246094 0-21.273438-7.367187-24.378906-17.921875-2.765626-9.414062-5.402344-16.332031-8.046876-21.1875-5.277343-9.695312-3.414062-22.007812 4.53125-29.960937l5.628907-5.625-14.566407-14.566406-5.621093 5.625c-7.953125 7.96875-20.269531 9.8125-29.960938 4.53125-4.847656-2.644532-11.785156-5.273438-21.1875-8.039063-10.558593-3.097656-17.921875-13.125-17.921875-24.378906v-7.945313h-17.066406v7.945313c0 11.253906-7.363281 21.28125-17.921875 24.378906-9.402344 2.765625-16.339844 5.402344-21.195313 8.039063-9.683593 5.273437-22.007812 3.414062-29.953124-4.53125l-5.621094-5.625-14.566406 14.566406 5.621093 5.625c7.945313 7.953125 9.816407 20.265625 4.542969 29.960937-2.648438 4.855469-5.285156 11.785157-8.046875 21.1875-3.109375 10.546875-13.132813 17.921875-24.382813 17.921875h-7.941406v17.066406h7.941406c11.25 0 21.273438 7.363282 24.382813 17.917969 2.761719 9.40625 5.398437 16.332031 8.046875 21.1875 5.273438 9.6875 3.410156 22.007813-4.53125 29.960938l-5.632812 5.625 14.566406 14.566406 5.621094-5.625c7.953124-7.96875 20.277343-9.804687 29.960937-4.53125 4.855469 2.644531 11.785156 5.273437 21.1875 8.039063 10.558594 3.097656 17.921875 13.125 17.921875 24.378906zm0 0" fill="#000000" style="fill: rgb(26, 82, 169);"></path><path d="m213.335938 290.136719c-2.183594 0-4.371094-.835938-6.035157-2.5l-25.597656-25.597657c-3.335937-3.339843-3.335937-8.730468 0-12.066406l25.597656-25.601562c3.328125-3.335938 8.738281-3.335938 12.066407 0 3.335937 3.335937 3.335937 8.730468 0 12.066406l-19.566407 19.566406 19.566407 19.566406c3.335937 3.335938 3.335937 8.730469 0 12.066407-1.664063 1.664062-3.847657 2.5-6.03125 2.5zm0 0" fill="#000000" style="fill: rgb(26, 82, 169);"></path><path d="m298.667969 290.136719c-2.183594 0-4.367188-.835938-6.03125-2.5-3.335938-3.335938-3.335938-8.730469 0-12.066407l19.566406-19.566406-19.566406-19.566406c-3.335938-3.335938-3.335938-8.730469 0-12.066406 3.328125-3.335938 8.738281-3.335938 12.066406 0l25.597656 25.601562c3.335938 3.335938 3.335938 8.726563 0 12.066406l-25.597656 25.597657c-1.664063 1.664062-3.851563 2.5-6.035156 2.5zm0 0" fill="#000000" style="fill: rgb(26, 82, 169);"></path><path d="m247.46875 290.136719c-.777344 0-1.5625-.109375-2.347656-.324219-4.53125-1.296875-7.160156-6.023438-5.863282-10.546875l17.070313-59.734375c1.296875-4.53125 6.023437-7.125 10.546875-5.871094 4.53125 1.296875 7.15625 6.027344 5.859375 10.550782l-17.066406 59.730468c-1.066407 3.753906-4.480469 6.195313-8.199219 6.195313zm0 0" fill="#000000" style="fill: rgb(26, 82, 169);"></path></svg>