<!-- icon666.com - MILLIONS vector ICONS FREE --><svg version="1.1" id="Capa_1" xmlns="http://www.w3.org/2000/svg" xmlns:xlink="http://www.w3.org/1999/xlink" x="0px" y="0px" viewBox="0 0 512 512" style="enable-background:new 0 0 512 512;" xml:space="preserve"><g><g><path d="M439.95,84.655h-63.72v-23.64c0-4.14-3.35-7.5-7.5-7.5h-47.99c-4.15,0-7.5,3.36-7.5,7.5v23.64H72.05 c-13,0-23.56,10.56-23.56,23.55v110.84c0,4.14,3.35,7.5,7.5,7.5c4.14,0,7.5-3.36,7.5-7.5v-110.84c0-4.71,3.84-8.55,8.56-8.55 h241.19v28.78H123.81c-4.14,0-7.5,3.36-7.5,7.5s3.36,7.5,7.5,7.5h189.43v21.21H112.01c-4.15,0-7.5,3.36-7.5,7.5 c0,4.14,3.35,7.5,7.5,7.5h201.23v36.6c-8.56,0,20.6,0-201.23,0c-4.15,0-7.5,3.36-7.5,7.5s3.35,7.5,7.5,7.5h33v36.6h-33 c-4.15,0-7.5,3.36-7.5,7.5c0,4.15,3.35,7.5,7.5,7.5h33v36.6h-33c-4.15,0-7.5,3.36-7.5,7.5c0,4.15,3.35,7.5,7.5,7.5h287.98 c4.15,0,7.5-3.35,7.5-7.5c0-4.14-3.35-7.5-7.5-7.5h-23.76v-36.6h23.76c4.15,0,7.5-3.35,7.5-7.5c0-4.14-3.35-7.5-7.5-7.5h-23.76 v-36.6h23.76c4.15,0,7.5-3.36,7.5-7.5s-3.35-7.5-7.5-7.5h-23.76v-36.6h23.76c4.15,0,7.5-3.36,7.5-7.5c0-4.14-3.35-7.5-7.5-7.5 h-23.76v-21.21h33.62c3.33,0,6.04,2.71,6.04,6.03v201.1c0,3.33-2.71,6.03-6.04,6.03h-307.7c-3.33,0-6.04-2.7-6.04-6.03v-201.1 c0-1.95,0.96-3.79,2.56-4.93c3.37-2.39,4.17-7.07,1.78-10.45c-2.4-3.38-7.08-4.18-10.46-1.78c-5.56,3.94-8.88,10.36-8.88,17.16 v201.1c0,11.6,9.44,21.03,21.04,21.03h307.7c11.6,0,21.04-9.43,21.04-21.03v-201.1c0-11.59-9.44-21.03-21.04-21.03h-33.62v-28.78 h63.72c4.72,0,8.56,3.84,8.56,8.55v13.79c0,4.14,3.36,7.5,7.5,7.5c4.15,0,7.5-3.36,7.5-7.5v-13.79 C463.51,95.215,452.95,84.655,439.95,84.655z M193,319.445h-32.99v-88.2H193V319.445z M229.12,319.445H208v-36.6h21.12V319.445z M277.12,319.445h-33v-65.3h33V319.445z M313.24,319.445h-21.12v-36.6h21.12V319.445z M313.24,267.845h-21.12v-21.2 c0-4.14-3.36-7.5-7.5-7.5h-48c-4.14,0-7.5,3.36-7.5,7.5v21.2H208v-36.6h105.24V267.845z M361.23,319.445h-32.99 c0-11.129,0-240.226,0-250.93h32.99C361.23,75.733,361.23,313.123,361.23,319.445z" fill="#000000" style="fill: rgb(179, 0, 0);"></path></g></g><g><g><path d="M482.72,384.415h-19.21v-232.42c0-4.15-3.35-7.5-7.5-7.5c-4.14,0-7.5,3.35-7.5,7.5v232.42H63.49v-135.37 c0-4.14-3.36-7.5-7.5-7.5c-4.15,0-7.5,3.36-7.5,7.5v135.37H29.28c-16.14,0-29.28,13.14-29.28,29.29 c0,24.69,20.09,44.78,44.78,44.78h422.44c24.69,0,44.78-20.09,44.78-44.78C512,397.555,498.86,384.415,482.72,384.415z M177.88,399.515h156.24v0.381c0,6.893-5.607,12.5-12.5,12.5H190.38c-6.893,0-12.5-5.607-12.5-12.5V399.515z M467.22,443.485 H44.78c-16.42,0-29.78-13.36-29.78-29.78c0-7.88,6.41-14.29,14.28-14.29c8.163,0.002,63.861,0.021,133.6,0.04v0.441 c0,15.163,12.337,27.5,27.5,27.5h131.24c15.163,0,27.5-12.337,27.5-27.5v-0.409c72.62,0.002,129.819-0.014,133.6-0.071 c7.87,0,14.28,6.41,14.28,14.29C497,430.125,483.64,443.485,467.22,443.485z" fill="#000000" style="fill: rgb(179, 0, 0);"></path></g></g><g><g><circle cx="256" cy="113.83" r="8.75" fill="#000000" style="fill: rgb(179, 0, 0);"></circle></g></g><g><g><path d="M406.5,416.091c-4.411,0-8,3.589-8,8s3.589,8,8,8s8-3.589,8-8S410.911,416.091,406.5,416.091z" fill="#000000" style="fill: rgb(179, 0, 0);"></path></g></g><g><g><path d="M431.257,416.091c-4.411,0-8,3.589-8,8s3.589,8,8,8s8-3.589,8-8S435.668,416.091,431.257,416.091z" fill="#000000" style="fill: rgb(179, 0, 0);"></path></g></g><g><g><path d="M456.014,416.091c-4.411,0-8,3.589-8,8s3.589,8,8,8s8-3.589,8-8S460.425,416.091,456.014,416.091z" fill="#000000" style="fill: rgb(179, 0, 0);"></path></g></g></svg>