<!-- icon666.com - MILLIONS vector ICONS FREE --><svg version="1.1" id="Layer_1" xmlns="http://www.w3.org/2000/svg" xmlns:xlink="http://www.w3.org/1999/xlink" x="0px" y="0px" viewBox="0 0 512 512" style="enable-background:new 0 0 512 512;" xml:space="preserve"><g><g><path d="M136.883,241.888c13.954-9.854,23.092-26.092,23.092-44.435v-40.348c0-29.983-24.394-54.376-54.376-54.376 c-29.983,0-54.376,24.394-54.376,54.376v40.348c0,18.342,9.139,34.581,23.092,44.435C31.787,255.536,0,294.751,0,339.119v31.498 c0,4.138,3.354,7.491,7.491,7.491h38.737c4.138,0,7.491-3.353,7.491-7.491c0-4.138-3.353-7.491-7.491-7.491H14.981v-24.007 c0-22.7,9.699-44.417,27.31-61.149c10.217-9.707,22.523-16.996,35.663-21.402l8.466,16.452l-12.443,54.013 c-0.605,2.631,0.251,5.384,2.242,7.207l24.321,22.259c1.431,1.309,3.244,1.966,5.057,1.966s3.627-0.655,5.057-1.966l24.32-22.259 c1.992-1.823,2.849-4.576,2.242-7.207l-12.443-54.013l8.467-16.452c13.14,4.406,25.445,11.694,35.663,21.402 c17.611,16.732,27.31,38.448,27.31,61.149v24.007H71.196c-4.138,0-7.491,3.353-7.491,7.491c0,4.138,3.353,7.491,7.491,7.491 h132.509c4.138,0,7.491-3.353,7.491-7.491v-31.498C211.196,294.751,179.409,255.536,136.883,241.888z M66.201,157.107h0.002 c0-21.723,17.672-39.395,39.395-39.395c21.723,0,39.395,17.672,39.395,39.395v11.716c-16.321-4.238-23.061-21.08-23.368-21.869 c-1.04-2.742-3.584-4.625-6.51-4.819c-2.899-0.191-5.696,1.336-7.088,3.917c-0.119,0.221-11.395,20.453-41.826,23.384V157.107z M105.598,340.819l-16.04-14.681l10.739-46.619h10.601l10.74,46.619L105.598,340.819z M92.897,252.866 c1.303-0.209,2.611-0.391,3.92-0.541c0.152-0.017,0.305-0.031,0.456-0.048c1.151-0.127,2.304-0.226,3.458-0.308 c0.309-0.022,0.617-0.045,0.926-0.064c0.903-0.054,1.807-0.081,2.711-0.108c0.41,0.009,0.817,0.031,1.229,0.031 c0.413,0,0.819-0.022,1.229-0.031c0.904,0.026,1.808,0.053,2.712,0.108c0.309,0.018,0.616,0.042,0.925,0.063 c1.155,0.082,2.308,0.182,3.46,0.308c0.152,0.017,0.303,0.03,0.454,0.048c1.31,0.151,2.618,0.333,3.921,0.541l-6.009,11.672 H98.905L92.897,252.866z M107.198,236.807c-0.498-0.014-0.997-0.033-1.497-0.04c-0.068-0.002-0.137-0.002-0.205,0 c-0.5,0.007-0.999,0.026-1.497,0.04c-20.984-0.842-37.796-18.167-37.796-39.354v-12.978c24.25-1.917,39.261-12.908,47.36-21.343 c5.665,8.194,15.693,18.423,31.431,21.011v13.309C144.994,218.639,128.182,235.963,107.198,236.807z" fill="#000000" style="fill: rgb(179, 0, 0);"></path></g></g><g><g><path d="M504.509,71.003h-55.247c-4.138,0-7.491,3.353-7.491,7.491c0,4.138,3.353,7.491,7.491,7.491h47.757v58.807H367.782V85.984 h56.511c4.138,0,7.491-3.353,7.491-7.491c0-4.138-3.353-7.491-7.491-7.491H234.658c-4.138,0-7.491,3.353-7.491,7.491v73.788 c0,4.138,3.353,7.491,7.491,7.491h269.851c4.137,0,7.491-3.353,7.491-7.491V78.493C512,74.355,508.646,71.003,504.509,71.003z M352.801,144.791H242.149V85.984h110.652V144.791z" fill="#000000" style="fill: rgb(179, 0, 0);"></path></g></g><g><g><path d="M504.509,211.615h-48.559H339.402h-0.001c-4.138,0-7.491,3.353-7.491,7.491s3.353,7.491,7.491,7.491h0.001h109.057v58.807 h-206.31v-58.807h72.283h0.001c4.137,0,7.491-3.353,7.491-7.491c0-4.138-3.354-7.491-7.491-7.491h-0.001h-79.774 c-4.138,0-7.491,3.353-7.491,7.491v73.788c0,4.138,3.353,7.491,7.491,7.491h269.851c4.137,0,7.491-3.353,7.491-7.491v-73.788 C512,214.968,508.646,211.615,504.509,211.615z M497.019,285.403h-33.577v-58.807h33.577V285.403z" fill="#000000" style="fill: rgb(179, 0, 0);"></path></g></g><g><g><path d="M504.509,352.227h-41.568c-4.137,0-7.491,3.353-7.491,7.491c0,4.138,3.354,7.491,7.491,7.491h34.078v58.808h-79.613 v-58.808h20.566c4.138,0,7.491-3.353,7.491-7.491c0-4.138-3.353-7.491-7.491-7.491H234.658c-4.138,0-7.491,3.353-7.491,7.491 v73.789c0,4.137,3.353,7.491,7.491,7.491h175.257h94.594c4.137,0,7.491-3.354,7.491-7.491v-73.789 C512,355.58,508.646,352.227,504.509,352.227z M402.424,426.016H242.149v-58.808h160.276V426.016z" fill="#000000" style="fill: rgb(179, 0, 0);"></path></g></g></svg>