<!-- icon666.com - MILLIONS vector ICONS FREE --><svg version="1.1" id="Layer_1" xmlns="http://www.w3.org/2000/svg" xmlns:xlink="http://www.w3.org/1999/xlink" x="0px" y="0px" viewBox="0 0 512 512" style="enable-background:new 0 0 512 512;" xml:space="preserve"><g><g><path d="M504.12,249.073c-18.66-21.523-38.829-40.369-60.322-56.468V76.982c0-5.111-4.142-9.254-9.254-9.254H195.542 c-5.111,0-9.254,4.143-9.254,9.254s4.142,9.254,9.254,9.254h229.75v93.41c-14.251-9.311-29.022-17.495-44.291-24.465 c-4.65-2.122-10.138-0.074-12.259,4.575c-2.123,4.649-0.074,10.138,4.575,12.261c19.453,8.881,38.075,19.838,55.789,32.746 c0.104,0.076,0.207,0.157,0.315,0.229c19.62,14.331,38.123,31.063,55.352,50.146C420.829,325.914,338.869,364.78,253.141,364.78 c-0.022,0-0.048,0-0.07,0c-85.699-0.021-167.605-38.889-231.467-109.643c86.207-95.523,203.898-131.655,316.334-96.658 c4.88,1.518,10.066-1.207,11.585-6.086c1.519-4.88-1.206-10.067-6.086-11.585c-58.744-18.284-120.858-18.387-179.628-0.296 c-27.641,8.509-54.358,21.03-79.576,37.15V86.236h75.941c5.111,0,9.254-4.143,9.254-9.254s-4.142-9.254-9.254-9.254H74.98 c-5.111,0-9.254,4.143-9.254,9.254v113.356c-22.738,16.647-44.054,36.325-63.467,58.74c-3.012,3.477-3.012,8.639,0,12.116 c19.562,22.585,40.851,42.244,63.467,58.819v119.373c0,5.111,4.142,9.254,9.254,9.254h245.007c5.111,0,9.254-4.143,9.254-9.254 c0-5.111-4.142-9.254-9.254-9.254H84.233v-97.448c51.65,33.017,109.328,50.586,168.833,50.6c0.029,0,0.046,0,0.075,0 c60.761-0.002,119.638-18.298,172.151-52.665v99.513h-73.473c-5.111,0-9.254,4.143-9.254,9.254s4.142,9.254,9.254,9.254h82.727 c5.111-0.001,9.253-4.144,9.253-9.254V317.64c21.44-16.071,41.665-34.926,60.322-56.443 C507.135,257.718,507.135,252.552,504.12,249.073z" fill="#000000" style="fill: rgb(179, 0, 0);"></path></g></g><g><g><path d="M276.559,243.078h-14.116v-14.115c0-5.111-4.142-9.254-9.254-9.254c-5.111,0-9.254,4.143-9.254,9.254v14.116h-14.115 c-5.111,0-9.254,4.143-9.254,9.254s4.142,9.254,9.254,9.254h14.115V275.7c0,5.111,4.142,9.254,9.254,9.254 c5.111,0,9.254-4.143,9.254-9.254v-14.114h14.115c5.111,0,9.254-4.143,9.254-9.254S281.67,243.078,276.559,243.078z" fill="#000000" style="fill: rgb(179, 0, 0);"></path></g></g><g><g><path d="M108.979,13.273H9.254C4.142,13.275,0,17.418,0,22.528v97.766c0,5.11,4.142,9.253,9.254,9.253 c5.111,0,9.254-4.143,9.254-9.254V31.781h90.471c5.111,0,9.254-4.143,9.254-9.254S114.091,13.273,108.979,13.273z" fill="#000000" style="fill: rgb(179, 0, 0);"></path></g></g><g><g><path d="M502.747,84.302c-5.111,0-9.254,4.143-9.254,9.254v26.737c0,5.111,4.142,9.254,9.254,9.254 c5.111,0,9.254-4.143,9.254-9.254V93.556C512,88.445,507.858,84.302,502.747,84.302z" fill="#000000" style="fill: rgb(179, 0, 0);"></path></g></g><g><g><path d="M502.747,13.275h-99.726c-5.111,0-9.254,4.143-9.254,9.254s4.142,9.254,9.254,9.254h90.472v28.307 c0,5.111,4.142,9.254,9.254,9.254c5.111,0,9.254-4.143,9.254-9.254V22.528C512,17.418,507.858,13.275,502.747,13.275z" fill="#000000" style="fill: rgb(179, 0, 0);"></path></g></g><g><g><path d="M502.747,382.454c-5.111,0-9.254,4.143-9.254,9.254v88.512h-90.472c-5.111,0-9.254,4.143-9.254,9.254 c0,5.111,4.142,9.254,9.254,9.254h99.726c5.111,0,9.254-4.143,9.254-9.254v-97.766C512,386.597,507.858,382.454,502.747,382.454z" fill="#000000" style="fill: rgb(179, 0, 0);"></path></g></g><g><g><path d="M108.978,480.22H18.506v-88.512c0-5.111-4.142-9.254-9.254-9.254c-5.112,0-9.253,4.143-9.253,9.254v97.766 c0,5.111,4.142,9.254,9.254,9.254h99.724c5.111,0,9.254-4.143,9.254-9.254C118.232,484.363,114.089,480.22,108.978,480.22z" fill="#000000" style="fill: rgb(179, 0, 0);"></path></g></g><g><g><path d="M110.322,389.045c-5.112,0-9.254,4.144-9.254,9.254v5.284c0,5.111,4.142,9.254,9.254,9.254 c5.112,0,9.254-4.143,9.254-9.254v-5.284C119.575,393.188,115.433,389.045,110.322,389.045z" fill="#000000" style="fill: rgb(179, 0, 0);"></path></g></g><g><g><path d="M135.248,389.045c-5.112,0.001-9.254,4.144-9.254,9.254v5.284c0,5.111,4.142,9.254,9.254,9.254 c5.111,0,9.254-4.143,9.254-9.254v-5.284C144.501,393.188,140.359,389.045,135.248,389.045z" fill="#000000" style="fill: rgb(179, 0, 0);"></path></g></g><g><g><path d="M160.175,389.045c-5.112,0-9.254,4.144-9.254,9.254v5.284c0,5.111,4.142,9.254,9.254,9.254s9.254-4.143,9.254-9.254 v-5.284C169.428,393.188,165.286,389.045,160.175,389.045z" fill="#000000" style="fill: rgb(179, 0, 0);"></path></g></g><g><g><path d="M253.189,176.614c-43.296,0-78.521,35.225-78.521,78.521c0,28.899,15.808,55.388,41.258,69.13 c4.495,2.428,10.109,0.75,12.539-3.745c2.427-4.497,0.75-10.11-3.746-12.539c-19.457-10.508-31.543-30.758-31.543-52.847 c0-33.092,26.922-60.015,60.015-60.015s60.016,26.923,60.016,60.015s-26.923,60.015-60.016,60.015 c-5.111,0-9.254,4.143-9.254,9.254s4.142,9.253,9.253,9.253c43.297,0,78.522-35.225,78.522-78.521 S296.487,176.614,253.189,176.614z" fill="#000000" style="fill: rgb(179, 0, 0);"></path></g></g></svg>